<?xml version="1.0" encoding="utf-8"?>
<!-- Generator: Adobe Illustrator 16.0.4, SVG Export Plug-In . SVG Version: 6.00 Build 0)  -->
<!DOCTYPE svg PUBLIC "-//W3C//DTD SVG 1.1//EN" "http://www.w3.org/Graphics/SVG/1.1/DTD/svg11.dtd">
<svg version="1.1" id="Layer_1" xmlns="http://www.w3.org/2000/svg" xmlns:xlink="http://www.w3.org/1999/xlink" x="0px" y="0px"
	 width="106.443px" height="44.443px" viewBox="0 0 106.443 44.443" enable-background="new 0 0 106.443 44.443"
	 xml:space="preserve">
<g>
	<path fill="#02D6B1" d="M10.968,11.838c-5.703,0-10.343,4.659-10.343,10.386s4.64,10.385,10.343,10.385s10.343-4.658,10.343-10.385
		C21.311,16.496,16.671,11.838,10.968,11.838z M2.656,21.233c0.489-4.193,4.065-7.421,8.312-7.421s7.822,3.228,8.312,7.421H2.656z
		 M19.281,23.21c-0.489,4.193-4.065,7.422-8.312,7.422c-4.246,0-7.821-3.229-8.312-7.422H19.281z"/>
	<path fill="#02D6B1" d="M76.478,11.838H57.761c-0.544,0-0.986,0.443-0.986,0.987v9.397c0,5.727,4.642,10.385,10.346,10.385
		s10.345-4.658,10.345-10.385v-9.398C77.462,12.28,77.02,11.838,76.478,11.838z M68.103,30.571V13.812h7.391v8.41
		C75.492,26.485,72.278,30.077,68.103,30.571z M66.134,13.812v16.757c-4.174-0.493-7.388-4.084-7.388-8.347v-8.41H66.134z"/>
	<path fill="#02D6B1" d="M48.404,11.838H29.686c-0.543,0-0.984,0.443-0.984,0.987v18.793c0,0.544,0.441,0.987,0.984,0.987h18.718
		c0.543,0,0.984-0.443,0.984-0.987V12.824C49.386,12.28,48.945,11.838,48.404,11.838z M47.417,13.814v16.816H40.03V13.814H47.417z
		 M38.059,13.812V30.63h-7.388V13.812H38.059z"/>
	<path fill="#02D6B1" d="M104.931,11.911c-0.363-0.15-0.793-0.063-1.075,0.215l-8.662,8.697l-8.659-8.697
		c-0.277-0.279-0.707-0.368-1.076-0.214c-0.368,0.155-0.606,0.513-0.606,0.912v18.793c0,0.544,0.442,0.987,0.985,0.987h18.716
		c0.07,0,0.136-0.007,0.244-0.035c0.039-0.008,0.17-0.056,0.205-0.074c0.009-0.005,0.087-0.048,0.096-0.054
		c0.05-0.033,0.095-0.068,0.134-0.106c0.013-0.01,0.023-0.021,0.033-0.031c0.039-0.043,0.075-0.087,0.104-0.129
		c0.027-0.04,0.047-0.077,0.045-0.077c0,0,0,0.001-0.001,0.001c0.009-0.016,0.047-0.086,0.053-0.103
		c0.014-0.032,0.022-0.063,0.052-0.166c0.017-0.063,0.023-0.133,0.023-0.21V12.825C105.538,12.424,105.3,12.066,104.931,11.911z
		 M103.568,15.212v14.02l-6.98-7.01L103.568,15.212z M102.175,30.632H86.821V15.214L102.175,30.632z"/>
</g>
</svg>
