<svg id="mtc" xmlns="http://www.w3.org/2000/svg" xmlns:xlink="http://www.w3.org/1999/xlink" viewBox="0 0 1920 1080"><defs><style>.cls-1{fill:url(#linear-gradient);}.cls-2,.cls-3,.cls-4{opacity:0.1;}.cls-2{fill:url(#linear-gradient-2);}.cls-3{fill:url(#linear-gradient-3);}.cls-4{fill:url(#linear-gradient-4);}</style><linearGradient id="linear-gradient" x1="958.25" y1="1080.83" x2="958.25" y2="396.83" gradientUnits="userSpaceOnUse"><stop offset="0" stop-color="#2c214a"/><stop offset="0.35" stop-color="#55356b"/><stop offset="1" stop-color="#aa5eae"/></linearGradient><linearGradient id="linear-gradient-2" x1="830.55" y1="425.8" x2="833.89" y2="606.08" gradientUnits="userSpaceOnUse"><stop offset="0" stop-color="#fcfcfc"/><stop offset="0.18" stop-color="#fcfcfc" stop-opacity="0.84"/><stop offset="0.6" stop-color="#fefefe" stop-opacity="0.42"/><stop offset="1" stop-color="#fff" stop-opacity="0"/></linearGradient><linearGradient id="linear-gradient-3" x1="209.61" y1="388.68" x2="213.85" y2="616.82" xlink:href="#linear-gradient-2"/><linearGradient id="linear-gradient-4" x1="1353.26" y1="477.75" x2="1356.27" y2="639.75" gradientUnits="userSpaceOnUse"><stop offset="0" stop-color="#fcfcfc"/><stop offset="0.12" stop-color="#fcfcfc" stop-opacity="0.84"/><stop offset="0.39" stop-color="#fefefe" stop-opacity="0.42"/><stop offset="0.65" stop-color="#fff" stop-opacity="0"/></linearGradient></defs><title>Artboard 1</title><path class="cls-1" d="M-1.75,396.83s63,.12,90,.12c99,0,153,35.88,234,35.88h37c44,0,44,36,44,36v90s0,18,18,18h81c3,0,9.9-2.72,18-9.17,45-35.83,144-116.83,144-116.83s18-18,54-18,54,18,54,18L969.72,605.37a15.28,15.28,0,0,0,19-.11l29.66-23.72a15.25,15.25,0,0,1,13.21-2.89l28.68,7.18h19.31a18.58,18.58,0,0,1,13.14,5.44l17,17a15.58,15.58,0,0,0,11,4.57h32.15a21.53,21.53,0,0,0,11.75-3.5l120.64-77.5c55.15-36,115.92-52.64,181.75-53.83l451.25-.17v603H-1.75Z"/><path class="cls-2" d="M720,432s-18,9-27,27c0,0,27-9,36,0a126.83,126.83,0,0,0-27,45s45,10,36,37l-36,53,9,9s54,54,108,45c0,0,18,18,45,18h63l45-63L774,450S756,432,720,432Z"/><path class="cls-3" d="M423,576c-18,0-18-18-18-18V468c0-36-36-36-63-36-18,0-72,0-126-18S99,396,99,396H0v9s144,0,279,54c42.61,17,63-9,81-9,11.45,0,26.53,7.28,36,12.58V585Z"/><path class="cls-4" d="M1161,612l126-81s72-54,180-53l81-1-36,36s-63,0-117,63c0,0-36-54-63-45,0,0,27,0,27,45,0,0-27-36-63-27S1161,612,1161,612Z"/></svg>