<svg id="mtb" xmlns="http://www.w3.org/2000/svg" xmlns:xlink="http://www.w3.org/1999/xlink" viewBox="0 0 1920 1080"><defs><style>.cls-1{fill:url(#linear-gradient);}.cls-2{opacity:0.1;fill:url(#linear-gradient-2);}</style><linearGradient id="linear-gradient" x1="960" y1="1080" x2="960" y2="522" gradientUnits="userSpaceOnUse"><stop offset="0" stop-color="#2c214a"/><stop offset="0.17" stop-color="#39295e"/><stop offset="0.52" stop-color="#503881"/><stop offset="0.81" stop-color="#5f4296"/><stop offset="1" stop-color="#64459e"/></linearGradient><linearGradient id="linear-gradient-2" x1="688.8" y1="524.19" x2="692.34" y2="714.83" gradientUnits="userSpaceOnUse"><stop offset="0" stop-color="#fcfcfc"/><stop offset="0.18" stop-color="#fcfcfc" stop-opacity="0.84"/><stop offset="0.6" stop-color="#fefefe" stop-opacity="0.42"/><stop offset="1" stop-color="#fff" stop-opacity="0"/></linearGradient></defs><title>Artboard 1</title><path class="cls-1" d="M0,1080V645l247-5.31a156.16,156.16,0,0,0,61.23-14L480,547.63A180.91,180.91,0,0,1,661.27,566l76.34,55.51A138.37,138.37,0,0,0,819,648h0a61.45,61.45,0,0,0,43.46,18H964.54A61.45,61.45,0,0,0,1008,648h378.48a200.68,200.68,0,0,0,84.86-18.83l170.22-79.43a295.67,295.67,0,0,1,125-27.74H1920v558Z"/><path class="cls-2" d="M558,531l-18,18s27-9,45,9c0,0-45,9-54,54,0,0,54,18,45,45s-54,81-45,126c0,0,225,0,324-117,0,0-27-9-36-18,0,0-36,18-144-72C675,576,630,531,558,531Z"/></svg>