<svg id="mta" xmlns="http://www.w3.org/2000/svg" xmlns:xlink="http://www.w3.org/1999/xlink" viewBox="0 0 1920 1080"><defs><style>.cls-1{fill:url(#linear-gradient);}.cls-2,.cls-3,.cls-4{opacity:0.1;}.cls-2{fill:url(#linear-gradient-2);}.cls-3{fill:url(#linear-gradient-3);}.cls-4{fill:url(#linear-gradient-4);}</style><linearGradient id="linear-gradient" x1="1194" y1="1080" x2="1194" y2="423" gradientUnits="userSpaceOnUse"><stop offset="0" stop-color="#2c214a"/><stop offset="1" stop-color="#3b258b"/></linearGradient><linearGradient id="linear-gradient-2" x1="1323.53" y1="619.44" x2="1325.85" y2="744.54" gradientUnits="userSpaceOnUse"><stop offset="0" stop-color="#fcfcfc"/><stop offset="0.09" stop-color="#fcfcfc" stop-opacity="0.84"/><stop offset="0.28" stop-color="#fefefe" stop-opacity="0.42"/><stop offset="0.47" stop-color="#fff" stop-opacity="0"/></linearGradient><linearGradient id="linear-gradient-3" x1="1434.29" y1="510.85" x2="1438.74" y2="750.19" gradientUnits="userSpaceOnUse"><stop offset="0" stop-color="#fcfcfc"/><stop offset="0.12" stop-color="#fcfcfc" stop-opacity="0.84"/><stop offset="0.39" stop-color="#fefefe" stop-opacity="0.42"/><stop offset="0.66" stop-color="#fff" stop-opacity="0"/></linearGradient><linearGradient id="linear-gradient-4" x1="1714.63" y1="416.87" x2="1719.8" y2="695.01" gradientUnits="userSpaceOnUse"><stop offset="0" stop-color="#fcfcfc"/><stop offset="0.12" stop-color="#fcfcfc" stop-opacity="0.84"/><stop offset="0.39" stop-color="#fefefe" stop-opacity="0.42"/><stop offset="0.65" stop-color="#fff" stop-opacity="0"/></linearGradient></defs><title>Artboard 1</title><path class="cls-1" d="M1136.24,738a150.83,150.83,0,0,0,92.62-31.78l18.83-14.64A78.64,78.64,0,0,1,1296,675h0l19-37.9a29.12,29.12,0,0,1,26-16.1h0l91.83-78.71A121.65,121.65,0,0,1,1512,513h0l52.58-52.58A127.77,127.77,0,0,1,1654.93,423h47.29a89.92,89.92,0,0,1,47.65,13.67l12,7.49A156.79,156.79,0,0,0,1845,468h75v612H468c-.38-101.5,162-333,459-342Z"/><path class="cls-2" d="M1296,675l18-36s9-18,27-18c0,0,18,9,9,36s-27,72-27,72S1323,675,1296,675Z"/><path class="cls-3" d="M1341,621s54,9,72,54l45,45s0-144,54-153c0,0-9-18-27-18,0,0,18-27,45-18,0,0,0-9-18-18,0,0-36,0-63,18S1341,621,1341,621Z"/><path class="cls-4" d="M1512,513l63-63s36-27,72-27h72c9,0,39.86,17.57,54,27,27,18,72,18,72,18h75v25s-85.66,13.27-111-7c-10.89-8.71-36-36-90-63-11.35-5.68-6.68,40.74-18,40.53a191.54,191.54,0,0,0-45,4.47s27,9,36,27c0,0-27-9-54,9,0,0,45,0,63,54,0,0-54,63-63,144C1638,702,1629,531,1512,513Z"/></svg>