<svg id="Trees" xmlns="http://www.w3.org/2000/svg" viewBox="0 0 1920 1080"><defs><style>.cls-1{fill:#1b1b44;}.cls-2{fill:#30266f;}.cls-3{fill:#272360;}.cls-4{fill:#1f1f51;}</style></defs><title>Artboard 1</title><rect class="cls-1" x="-216" y="801" width="2322" height="585"/><path class="cls-2" d="M895.9,467.21,865.66,598.88a5,5,0,0,0,4.87,6.12H931a5,5,0,0,0,4.87-6.12L905.65,467.21A5,5,0,0,0,895.9,467.21Z"/><path class="cls-2" d="M643.6,457.21,613.36,588.88a5,5,0,0,0,4.87,6.12h60.49a5,5,0,0,0,4.87-6.12L653.35,457.21A5,5,0,0,0,643.6,457.21Z"/><path class="cls-2" d="M685.6,450.21,655.36,581.88a5,5,0,0,0,4.87,6.12h60.49a5,5,0,0,0,4.87-6.12L695.35,450.21A5,5,0,0,0,685.6,450.21Z"/><path class="cls-2" d="M764.6,458.21,734.36,589.88a5,5,0,0,0,4.87,6.12h60.49a5,5,0,0,0,4.87-6.12L774.35,458.21A5,5,0,0,0,764.6,458.21Z"/><path class="cls-2" d="M814.87,449.06,784.28,582.21a4.73,4.73,0,0,0,4.61,5.79h61.17a4.73,4.73,0,0,0,4.61-5.79L824.09,449.06A4.73,4.73,0,0,0,814.87,449.06Z"/><path class="cls-2" d="M846.09,466.92,815.85,598.59a5,5,0,0,0,4.87,6.12h60.49a5,5,0,0,0,4.87-6.12L855.84,466.92A5,5,0,0,0,846.09,466.92Z"/><path class="cls-2" d="M866.1,479.72l-20.84,90.7a12.5,12.5,0,0,0,12.18,15.29h41.67a12.49,12.49,0,0,0,12.17-15.29l-20.83-90.7C887.48,466.79,869.07,466.79,866.1,479.72Z"/><path class="cls-2" d="M728.6,433.21l-28.13,122.5A12.49,12.49,0,0,0,712.64,571h41.67a12.5,12.5,0,0,0,12.18-15.29l-28.14-122.5A5,5,0,0,0,728.6,433.21Z"/><path class="cls-2" d="M949.6,423.21,919.36,554.88a5,5,0,0,0,4.87,6.12h60.49a5,5,0,0,0,4.87-6.12L959.35,423.21A5,5,0,0,0,949.6,423.21Z"/><path class="cls-2" d="M996.6,440.21l-28.13,122.5A12.49,12.49,0,0,0,980.64,578h41.67a12.5,12.5,0,0,0,12.18-15.29l-28.14-122.5A5,5,0,0,0,996.6,440.21Z"/><path class="cls-2" d="M1122.6,459.21l-30.24,131.67a5,5,0,0,0,4.87,6.12h60.49a5,5,0,0,0,4.87-6.12l-30.24-131.67A5,5,0,0,0,1122.6,459.21Z"/><path class="cls-2" d="M1090.6,432.21l-28.13,122.5A12.49,12.49,0,0,0,1074.64,570h41.67a12.5,12.5,0,0,0,12.18-15.29l-28.14-122.5A5,5,0,0,0,1090.6,432.21Z"/><path class="cls-2" d="M1455.6,468.21l-28.13,122.5A12.49,12.49,0,0,0,1439.64,606h41.67a12.5,12.5,0,0,0,12.18-15.29l-28.14-122.5A5,5,0,0,0,1455.6,468.21Z"/><path class="cls-2" d="M1212.6,432.21l-30.24,131.67a5,5,0,0,0,4.87,6.12h60.49a5,5,0,0,0,4.87-6.12l-30.24-131.67A5,5,0,0,0,1212.6,432.21Z"/><path class="cls-2" d="M991.3,500l-20.83,90.7A12.49,12.49,0,0,0,982.64,606h41.67a12.5,12.5,0,0,0,12.18-15.29L1015.65,500C1012.68,487.08,994.27,487.08,991.3,500Z"/><path class="cls-2" d="M921.94,498l-20.83,90.7A12.5,12.5,0,0,0,913.29,604H955a12.5,12.5,0,0,0,12.18-15.29L946.3,498C943.33,485.08,924.91,485.08,921.94,498Z"/><path class="cls-2" d="M1284.6,450.21l-30.24,131.67a5,5,0,0,0,4.87,6.12h60.49a5,5,0,0,0,4.87-6.12l-30.24-131.67A5,5,0,0,0,1284.6,450.21Z"/><path class="cls-2" d="M1588.3,503l-20.83,90.7A12.49,12.49,0,0,0,1579.64,609h41.67a12.5,12.5,0,0,0,12.18-15.29L1612.65,503C1609.68,490.08,1591.27,490.08,1588.3,503Z"/><path class="cls-2" d="M1160.6,441.21l-30.24,131.67a5,5,0,0,0,4.87,6.12h60.49a5,5,0,0,0,4.87-6.12l-30.24-131.67A5,5,0,0,0,1160.6,441.21Z"/><path class="cls-2" d="M1336.6,449.21l-30.24,131.67a5,5,0,0,0,4.87,6.12h60.49a5,5,0,0,0,4.87-6.12l-30.24-131.67A5,5,0,0,0,1336.6,449.21Z"/><path class="cls-2" d="M1378.6,469.21l-30.24,131.67a5,5,0,0,0,4.87,6.12h60.49a5,5,0,0,0,4.87-6.12l-30.24-131.67A5,5,0,0,0,1378.6,469.21Z"/><path class="cls-2" d="M1039.6,460.21l-30.24,131.67a5,5,0,0,0,4.87,6.12h60.49a5,5,0,0,0,4.87-6.12l-30.24-131.67A5,5,0,0,0,1039.6,460.21Z"/><path class="cls-3" d="M316.93,448.42,279.37,569.16A18.38,18.38,0,0,0,296.92,593H372a18.38,18.38,0,0,0,17.55-23.84L352,448.42C346.67,431.19,322.28,431.19,316.93,448.42Z"/><path class="cls-3" d="M400.93,421.42,363.37,542.16A18.38,18.38,0,0,0,380.92,566H456a18.38,18.38,0,0,0,17.55-23.84L436,421.42C430.67,404.19,406.28,404.19,400.93,421.42Z"/><path class="cls-3" d="M510.71,535.49l-53,170.43a7,7,0,0,0,6.68,9.08h106a7,7,0,0,0,6.68-9.08l-53-170.43A7,7,0,0,0,510.71,535.49Z"/><path class="cls-3" d="M500.71,440.49l-53,170.43a7,7,0,0,0,6.68,9.08h106a7,7,0,0,0,6.68-9.08l-53-170.43A7,7,0,0,0,500.71,440.49Z"/><path class="cls-3" d="M633.79,476.49l-53,170.43a7,7,0,0,0,6.68,9.08h106a7,7,0,0,0,6.69-9.08l-53-170.43A7,7,0,0,0,633.79,476.49Z"/><path class="cls-3" d="M245.79,392.49l-53,170.43a7,7,0,0,0,6.68,9.08h106a7,7,0,0,0,6.69-9.08l-53-170.43A7,7,0,0,0,245.79,392.49Z"/><path class="cls-3" d="M135.79,413.49l-53,170.43A7,7,0,0,0,89.46,593h106a7,7,0,0,0,6.69-9.08l-53-170.43A7,7,0,0,0,135.79,413.49Z"/><path class="cls-3" d="M439.79,449.49l-53,170.43a7,7,0,0,0,6.68,9.08h106a7,7,0,0,0,6.69-9.08l-53-170.43A7,7,0,0,0,439.79,449.49Z"/><path class="cls-3" d="M586.79,435.49l-53,170.43a7,7,0,0,0,6.68,9.08h106a7,7,0,0,0,6.69-9.08l-53-170.43A7,7,0,0,0,586.79,435.49Z"/><path class="cls-3" d="M693.79,437.49l-53,170.43a7,7,0,0,0,6.68,9.08h106a7,7,0,0,0,6.69-9.08l-53-170.43A7,7,0,0,0,693.79,437.49Z"/><path class="cls-3" d="M800.79,439.49,752.37,595.16A18.38,18.38,0,0,0,769.92,619H845a18.38,18.38,0,0,0,17.55-23.84L814.16,439.49A7,7,0,0,0,800.79,439.49Z"/><path class="cls-3" d="M843.79,512.49l-53,170.43a7,7,0,0,0,6.68,9.08h106a7,7,0,0,0,6.69-9.08l-53-170.43A7,7,0,0,0,843.79,512.49Z"/><path class="cls-3" d="M922.79,484.49l-53,170.43a7,7,0,0,0,6.68,9.08h106a7,7,0,0,0,6.69-9.08l-53-170.43A7,7,0,0,0,922.79,484.49Z"/><path class="cls-3" d="M1059.79,512.49l-53,170.43a7,7,0,0,0,6.68,9.08h106a7,7,0,0,0,6.69-9.08l-53-170.43A7,7,0,0,0,1059.79,512.49Z"/><path class="cls-3" d="M1119.79,499.49l-53,170.43a7,7,0,0,0,6.68,9.08h106a7,7,0,0,0,6.69-9.08l-53-170.43A7,7,0,0,0,1119.79,499.49Z"/><path class="cls-3" d="M993.79,517.49,945.37,673.16A18.38,18.38,0,0,0,962.92,697H1038a18.38,18.38,0,0,0,17.55-23.84l-48.42-155.67A7,7,0,0,0,993.79,517.49Z"/><path class="cls-3" d="M1182.79,485.49l-48.42,155.67A18.38,18.38,0,0,0,1151.92,665H1227a18.38,18.38,0,0,0,17.55-23.84l-48.42-155.67A7,7,0,0,0,1182.79,485.49Z"/><path class="cls-3" d="M1329.79,445.49l-53,170.43a7,7,0,0,0,6.68,9.08h106a7,7,0,0,0,6.69-9.08l-53-170.43A7,7,0,0,0,1329.79,445.49Z"/><path class="cls-3" d="M1416.79,418.49l-53,170.43a7,7,0,0,0,6.68,9.08h106a7,7,0,0,0,6.69-9.08l-53-170.43A7,7,0,0,0,1416.79,418.49Z"/><path class="cls-3" d="M1471.93,453.42l-37.56,120.74A18.38,18.38,0,0,0,1451.92,598H1527a18.38,18.38,0,0,0,17.55-23.84L1507,453.42C1501.67,436.19,1477.28,436.19,1471.93,453.42Z"/><path class="cls-3" d="M1525.93,421.42l-37.56,120.74A18.38,18.38,0,0,0,1505.92,566H1581a18.38,18.38,0,0,0,17.55-23.84L1561,421.42C1555.67,404.19,1531.28,404.19,1525.93,421.42Z"/><path class="cls-3" d="M1612.93,453.42l-37.56,120.74A18.38,18.38,0,0,0,1592.92,598H1668a18.38,18.38,0,0,0,17.55-23.84L1648,453.42C1642.67,436.19,1618.28,436.19,1612.93,453.42Z"/><path class="cls-3" d="M753.79,485.49l-53,170.43a7,7,0,0,0,6.68,9.08h106a7,7,0,0,0,6.69-9.08l-53-170.43A7,7,0,0,0,753.79,485.49Z"/><path class="cls-3" d="M1245.79,458.49l-53,170.43a7,7,0,0,0,6.68,9.08h106a7,7,0,0,0,6.69-9.08l-53-170.43A7,7,0,0,0,1245.79,458.49Z"/><path class="cls-4" d="M1845.66,361l-40.55,226.57A29.28,29.28,0,0,0,1833.93,622H1915a29.27,29.27,0,0,0,28.81-34.43L1903.29,361C1897.53,328.84,1851.42,328.84,1845.66,361Z"/><path class="cls-4" d="M794.67,453.63,727.49,826.87A12,12,0,0,0,739.3,841H873.65a12,12,0,0,0,11.81-14.13L818.29,453.63C815.92,440.46,797,440.46,794.67,453.63Z"/><path class="cls-4" d="M877.67,462.63,810.49,835.87A12,12,0,0,0,822.3,850H956.65a12,12,0,0,0,11.81-14.13L901.29,462.63C898.92,449.46,880,449.46,877.67,462.63Z"/><path class="cls-4" d="M551.67,455.63,484.49,828.87A12,12,0,0,0,496.3,843H630.65a12,12,0,0,0,11.81-14.13L575.29,455.63C572.92,442.46,554,442.46,551.67,455.63Z"/><path class="cls-4" d="M943.67,481.63,876.49,854.87A12,12,0,0,0,888.3,869h134.35a12,12,0,0,0,11.81-14.13L967.29,481.63C964.92,468.46,946,468.46,943.67,481.63Z"/><path class="cls-4" d="M1555.67,372.63,1488.5,745.87A12,12,0,0,0,1500.31,760h134.34a12,12,0,0,0,11.81-14.13l-67.17-373.24C1576.92,359.46,1558,359.46,1555.67,372.63Z"/><path class="cls-4" d="M1152.22,435.63l-67.17,373.24A12,12,0,0,0,1096.86,823H1231.2A12,12,0,0,0,1243,808.87l-67.17-373.24C1173.47,422.46,1154.59,422.46,1152.22,435.63Z"/><path class="cls-4" d="M1073.68,516.63l-67.17,373.24A12,12,0,0,0,1018.32,904h134.34a12,12,0,0,0,11.82-14.13L1097.3,516.63C1094.93,503.46,1076.05,503.46,1073.68,516.63Z"/><path class="cls-4" d="M704.67,480.63,637.49,853.87A12,12,0,0,0,649.3,868H783.65a12,12,0,0,0,11.81-14.13L728.29,480.63C725.92,467.46,707,467.46,704.67,480.63Z"/><path class="cls-4" d="M634.67,534.63,567.49,907.87A12,12,0,0,0,579.3,922H713.65a12,12,0,0,0,11.81-14.13L658.29,534.63C655.92,521.46,637,521.46,634.67,534.63Z"/><path class="cls-4" d="M742.67,688.63l-67.18,373.24A12,12,0,0,0,687.3,1076H821.65a12,12,0,0,0,11.81-14.13L766.29,688.63C763.92,675.46,745,675.46,742.67,688.63Z"/><path class="cls-4" d="M1006.67,580.63,939.49,953.87A12,12,0,0,0,951.3,968h134.35a12,12,0,0,0,11.81-14.13l-67.17-373.24C1027.92,567.46,1009,567.46,1006.67,580.63Z"/><path class="cls-4" d="M1262.67,427.63l-67.18,373.24A12,12,0,0,0,1207.3,815h134.35a12,12,0,0,0,11.81-14.13l-67.17-373.24C1283.92,414.46,1265,414.46,1262.67,427.63Z"/><path class="cls-4" d="M1186.67,615.63l-67.18,373.24A12,12,0,0,0,1131.3,1003h134.35a12,12,0,0,0,11.81-14.13l-67.17-373.24C1207.92,602.46,1189,602.46,1186.67,615.63Z"/><path class="cls-4" d="M1341.67,463.63l-67.18,373.24A12,12,0,0,0,1286.3,851h134.35a12,12,0,0,0,11.81-14.13l-67.17-373.24C1362.92,450.46,1344,450.46,1341.67,463.63Z"/><path class="cls-4" d="M1478.67,427.63l-67.18,373.24A12,12,0,0,0,1423.3,815h134.35a12,12,0,0,0,11.81-14.13l-67.17-373.24C1499.92,414.46,1481,414.46,1478.67,427.63Z"/><path class="cls-4" d="M1606,449l-43.84,243.6a31.52,31.52,0,0,0,31,37.09h87.68a31.51,31.51,0,0,0,31-37.09L1668,449C1661.75,414.45,1612.17,414.45,1606,449Z"/><path class="cls-4" d="M1735.67,318.63l-67.18,373.24A12,12,0,0,0,1680.3,706h134.35a12,12,0,0,0,11.81-14.13l-67.17-373.24C1756.92,305.46,1738,305.46,1735.67,318.63Z"/><path class="cls-4" d="M63.67,363.63-3.51,736.87A12,12,0,0,0,8.3,751H142.65a12,12,0,0,0,11.81-14.13L87.29,363.63C84.92,350.46,66,350.46,63.67,363.63Z"/><path class="cls-4" d="M191.67,373.63,124.49,746.87A12,12,0,0,0,136.3,761H270.65a12,12,0,0,0,11.81-14.13L215.29,373.63C212.92,360.46,194,360.46,191.67,373.63Z"/><path class="cls-4" d="M274.67,454.63,207.49,827.87A12,12,0,0,0,219.3,842H353.65a12,12,0,0,0,11.81-14.13L298.29,454.63C295.92,441.46,277,441.46,274.67,454.63Z"/><path class="cls-4" d="M432.67,426.63,365.49,799.87A12,12,0,0,0,377.3,814H511.65a12,12,0,0,0,11.81-14.13L456.29,426.63C453.92,413.46,435,413.46,432.67,426.63Z"/><path class="cls-1" d="M1901.37,106,1746.79,871a20,20,0,0,0,19.61,24h309.15a20,20,0,0,0,19.61-24L1940.58,106C1936.26,84.64,1905.69,84.64,1901.37,106Z"/><path class="cls-1" d="M-49.63,133-204.21,898a20,20,0,0,0,19.61,24H124.55a20,20,0,0,0,19.61-24L-10.42,133C-14.74,111.64-45.31,111.64-49.63,133Z"/><path class="cls-1" d="M120.37,259-34.21,1024a20,20,0,0,0,19.61,24H294.55a20,20,0,0,0,19.61-24L159.58,259C155.26,237.64,124.69,237.64,120.37,259Z"/><path class="cls-1" d="M282.31,353,127.74,1118a20,20,0,0,0,19.6,24H456.5a20,20,0,0,0,19.6-24L321.52,353C317.2,331.64,286.64,331.64,282.31,353Z"/><path class="cls-1" d="M1801.82,187,1647.24,952a20,20,0,0,0,19.61,24H1976a20,20,0,0,0,19.61-24L1841,187C1836.71,165.64,1806.14,165.64,1801.82,187Z"/><path class="cls-1" d="M1398.82,425l-154.58,765a20,20,0,0,0,19.61,24H1573a20,20,0,0,0,19.61-24L1438,425C1433.71,403.64,1403.14,403.64,1398.82,425Z"/><path class="cls-1" d="M372.82,416,218.24,1181a20,20,0,0,0,19.61,24H547a20,20,0,0,0,19.61-24L412,416C407.71,394.64,377.14,394.64,372.82,416Z"/><path class="cls-1" d="M1630.82,277l-154.58,765a20,20,0,0,0,19.61,24H1805a20,20,0,0,0,19.61-24L1670,277C1665.71,255.64,1635.14,255.64,1630.82,277Z"/><path class="cls-1" d="M1382.44,1151,1283,659c-4.32-21.38-34.89-21.38-39.21,0l-52.39,259.31L1139,659c-4.32-21.38-34.89-21.38-39.21,0l-61.3,303.41L979,668c-4.32-21.38-34.89-21.38-39.21,0l-39,193L860,659c-4.32-21.38-34.89-21.38-39.21,0L746,1029.47,682,713c-4.32-21.38-34.89-21.38-39.21,0L606.25,894,565,690c-4.32-21.38-34.89-21.38-39.21,0l-93.14,461Z"/></svg>