<svg xmlns="http://www.w3.org/2000/svg" viewBox="0 0 549 98.26"><defs><style>.cls-1{fill:#ddc2db;}</style></defs><title>Asset 2</title><g id="Layer_2" data-name="Layer 2"><g id="Clouds"><path class="cls-1" d="M0,98.26H549l-3.63-3.63a49.07,49.07,0,0,0-34.7-14.37H489.73a9,9,0,0,1-6.37-2.64l-9-9a9,9,0,0,0-12.72,0l-9,9a9,9,0,0,1-6.37,2.64H414l-1.63-1.63a55.9,55.9,0,0,0-39.52-16.37H351a18,18,0,0,0-18-18H291.16a9,9,0,0,1-5.63-2L269,29.05A94.84,94.84,0,0,0,209.73,8.26h0a9.06,9.06,0,0,1-5-1.51h0A40.19,40.19,0,0,0,157,9.08L83.49,69.23a9.05,9.05,0,0,1-5.7,2H65A72.27,72.27,0,0,0,27.86,81.54Z"/></g></g></svg>