<?xml version="1.0" encoding="utf-8"?>
<!-- Generator: Adobe Illustrator 24.0.3, SVG Export Plug-In . SVG Version: 6.00 Build 0)  -->
<svg version="1.1" id="Layer_1" xmlns="http://www.w3.org/2000/svg" xmlns:xlink="http://www.w3.org/1999/xlink" x="0px" y="0px"
	 viewBox="0 0 56 56" style="enable-background:new 0 0 56 56;" xml:space="preserve">
<style type="text/css">
	.st0{fill:#181B42;}
</style>
<g>
	<path class="st0" d="M39,25.2c-3.6,0-4.1,3.6-4.1,3.6h7.7C42.6,28.8,42.6,25.2,39,25.2z"/>
	<path class="st0" d="M21.6,28.8h-6.8V35h6c0.1,0,0.3,0,0.4,0c1,0,2.8-0.3,2.8-3C24.1,28.8,21.6,28.8,21.6,28.8z"/>
	<path class="st0" d="M28,0C12.5,0,0,12.5,0,28s12.5,28,28,28c15.5,0,28-12.5,28-28C56,12.5,43.5,0,28,0z M33.9,17.2h9.6v2.9h-9.6
		V17.2z M29,32.3c0,7.1-7.4,6.9-7.4,6.9h-6.8h-0.2H9.4V15.8h5.2h0.2h6.8c3.7,0,6.6,2,6.6,6.2s-3.6,4.4-3.6,4.4
		C29.3,26.5,29,32.3,29,32.3z M47.1,31.9H34.9c0,4.3,4.1,4.1,4.1,4.1c3.9,0,3.7-2.5,3.7-2.5h4.1c0,6.7-8,6.2-8,6.2
		c-9.6,0-9-8.9-9-8.9s0-9,9-9C48.4,21.8,47.1,31.9,47.1,31.9z"/>
	<path class="st0" d="M23.3,22.4c0-2.4-1.7-2.4-1.7-2.4h-0.9h-5.9v5.2h6.4C22.3,25.2,23.3,24.8,23.3,22.4z"/>
</g>
</svg>
