<svg xmlns="http://www.w3.org/2000/svg" viewBox="0 0 64.38 64.4"><defs><style>.cls-1{fill:#1a1b44;}</style></defs><title>Asset 3</title><g id="Layer_2" data-name="Layer 2"><g id="Layer_1-2" data-name="Layer 1"><path class="cls-1" d="M14.51,0A14.14,14.14,0,1,0,28.59,14.13,14.13,14.13,0,0,0,14.51,0Zm0,4.31A9.76,9.76,0,0,1,24,12H5A9.76,9.76,0,0,1,14.51,4.31Zm0,19.65A9.76,9.76,0,0,1,5,16.29H24A9.76,9.76,0,0,1,14.51,24ZM62.22,0H38.36a2.16,2.16,0,0,0-2.15,2.16v24a2.16,2.16,0,0,0,2.15,2.16H62.22a2.16,2.16,0,0,0,2.16-2.16V2.16A2.16,2.16,0,0,0,62.22,0ZM48.14,24H40.52V4.31h7.62Zm11.93,0H52.45V4.31h7.62ZM26,36H2.15A2.16,2.16,0,0,0,0,38.16v12a14.09,14.09,0,1,0,28.17,0v-12A2.16,2.16,0,0,0,26,36ZM11.93,59.71a9.77,9.77,0,0,1-7.62-9.58V40.31h7.62Zm11.93-9.58a9.78,9.78,0,0,1-7.62,9.58V40.31h7.62ZM64,38.16a2.16,2.16,0,0,0-1.33-2A2.3,2.3,0,0,0,61.8,36a2.15,2.15,0,0,0-1.53.64L49.87,47.08,39.47,36.63A2.18,2.18,0,0,0,37.94,36a2.3,2.3,0,0,0-.82.16,2.16,2.16,0,0,0-1.33,2v24a2.16,2.16,0,0,0,2.15,2.16H61.8a1.84,1.84,0,0,0,.33,0l.13.16.73-.49.65-.38-.07-.16h.17l.17-.82v0l.2-.75L64,61.73ZM40.09,60V43.37L56.61,60ZM59.65,56.9l-6.74-6.77,6.74-6.76Z"/></g></g></svg>