<svg xmlns="http://www.w3.org/2000/svg" viewBox="0 0 133.53 26.27"><defs><style>.cls-1{fill:#fff;}</style></defs><title>Asset 1</title><g id="Layer_2" data-name="Layer 2"><g id="Layer_1-2" data-name="Layer 1"><path class="cls-1" d="M13.08,0A13.14,13.14,0,1,0,26.16,13.13,13.12,13.12,0,0,0,13.08,0Zm0,24A10.83,10.83,0,0,1,2.37,14.29H23.79A10.83,10.83,0,0,1,13.08,24ZM2.37,12a10.77,10.77,0,0,1,21.42,0ZM96.59,0H72.73a1.15,1.15,0,0,0-1.15,1.16v12a13.08,13.08,0,1,0,26.16,0v-12A1.16,1.16,0,0,0,96.59,0ZM83.51,23.89a10.84,10.84,0,0,1-9.63-10.76V2.31h9.63ZM95.44,13.13a10.84,10.84,0,0,1-9.63,10.76V2.31h9.63ZM60.8,0H36.94a1.15,1.15,0,0,0-1.15,1.16v24a1.15,1.15,0,0,0,1.15,1.16H60.8A1.15,1.15,0,0,0,62,25.11V1.16A1.15,1.15,0,0,0,60.8,0ZM47.72,24H38.09V2.31h9.63Zm11.93,0H50V2.31h9.63ZM132.82.09a1.15,1.15,0,0,0-1.26.25L120.45,11.5,109.33.34a1.15,1.15,0,0,0-2,.82v24a1.15,1.15,0,0,0,1.15,1.16h23.86l.22,0,.12,0,.1,0,.11-.05-.16-.34.25.28.13-.1s0,0,0,0a.91.91,0,0,0,.13-.16.6.6,0,0,0,.06-.11l.05-.09a.42.42,0,0,0,0-.12l-.36-.11h.39a1.64,1.64,0,0,0,0-.23V1.16A1.16,1.16,0,0,0,132.82.09ZM109.67,24V4L129.6,24Zm21.55-1.64-9.14-9.19L131.22,4Zm1.7,3.35Z"/></g></g></svg>