<?xml version="1.0" encoding="utf-8"?>
<!-- Generator: Adobe Illustrator 24.0.3, SVG Export Plug-In . SVG Version: 6.00 Build 0)  -->
<svg version="1.1" id="Layer_1" xmlns="http://www.w3.org/2000/svg" xmlns:xlink="http://www.w3.org/1999/xlink" x="0px" y="0px"
	 viewBox="0 0 56 56" style="enable-background:new 0 0 56 56;" xml:space="preserve">
<style type="text/css">
	.st0{fill:#181B42;}
</style>
<g>
	<path class="st0" d="M29.2,28.1c0.2-0.1,0.5-0.1,0.7-0.2c-0.4-1-0.9-2-1.4-2.9c-8.9,2.7-17.5,2.5-17.8,2.5c0,0.2,0,0.4,0,0.6
		c0,4.5,1.7,8.5,4.4,11.6c0,0,0,0,0,0S19.8,31.2,29.2,28.1z"/>
	<path class="st0" d="M27,22.3c-3-5.3-6.2-9.7-6.4-10c-4.8,2.3-8.5,6.7-9.6,12.1C11.5,24.4,18.7,24.5,27,22.3z"/>
	<path class="st0" d="M39.5,15c-3.1-2.7-7.1-4.3-11.5-4.3c-1.4,0-2.8,0.2-4.1,0.5c0.3,0.3,3.5,4.7,6.5,10.1
		C36.9,18.8,39.4,15,39.5,15z"/>
	<path class="st0" d="M23.8,11.2C23.8,11.2,23.8,11.2,23.8,11.2C23.8,11.2,23.8,11.2,23.8,11.2L23.8,11.2z"/>
	<path class="st0" d="M17.3,41.7L17.3,41.7c-0.1-0.1-0.3-0.2-0.4-0.3C17.2,41.6,17.3,41.7,17.3,41.7z"/>
	<path class="st0" d="M31.7,23.8c0.4,0.8,0.8,1.7,1.2,2.5c0.1,0.3,0.3,0.6,0.4,0.9c6-0.8,11.8,0.5,12.1,0.6c0-4.1-1.5-7.9-3.9-10.8
		C41.4,17,38.6,21,31.7,23.8z"/>
	<path class="st0" d="M31,30.8c-10.2,3.6-13.6,10.8-13.6,10.8C20.3,44,24,45.4,28,45.4c2.4,0,4.7-0.5,6.8-1.4
		c-0.3-1.5-1.3-6.8-3.7-13.2C31,30.8,31,30.8,31,30.8z"/>
	<path class="st0" d="M28,0C12.5,0,0,12.5,0,28c0,15.5,12.5,28,28,28c15.5,0,28-12.5,28-28C56,12.5,43.5,0,28,0z M46.7,35.9
		c-0.5,1.2-1.1,2.4-1.9,3.5c-0.7,1.1-1.6,2.1-2.5,3c-0.9,0.9-1.9,1.8-3,2.5c-1.1,0.7-2.3,1.4-3.5,1.9c-1.2,0.5-2.5,0.9-3.8,1.2
		c-1.3,0.3-2.7,0.4-4.1,0.4c-1.4,0-2.8-0.1-4.1-0.4c-1.3-0.3-2.6-0.7-3.8-1.2c-1.2-0.5-2.4-1.1-3.5-1.9c-1.1-0.7-2.1-1.6-3-2.5
		c-0.9-0.9-1.8-1.9-2.5-3c-0.7-1.1-1.4-2.2-1.9-3.5c-0.5-1.2-0.9-2.5-1.2-3.8c-0.3-1.3-0.4-2.7-0.4-4.1s0.1-2.8,0.4-4.1
		c0.3-1.3,0.7-2.6,1.2-3.8c0.5-1.2,1.1-2.4,1.9-3.5c0.7-1.1,1.6-2.1,2.5-3c0.9-0.9,1.9-1.7,3-2.5c1.1-0.7,2.2-1.4,3.5-1.9
		c1.2-0.5,2.5-0.9,3.8-1.2c1.3-0.3,2.7-0.4,4.1-0.4c1.4,0,2.8,0.1,4.1,0.4c1.3,0.3,2.6,0.7,3.8,1.2c1.2,0.5,2.4,1.1,3.5,1.9
		c1.1,0.7,2.1,1.6,3,2.5c0.9,0.9,1.8,1.9,2.5,3c0.7,1.1,1.4,2.2,1.9,3.5c0.5,1.2,0.9,2.5,1.2,3.8c0.3,1.3,0.4,2.7,0.4,4.1
		s-0.1,2.8-0.4,4.1C47.6,33.4,47.2,34.7,46.7,35.9z"/>
	<path class="st0" d="M34.3,30c2.3,6.3,3.2,11.4,3.4,12.4c3.9-2.6,6.7-6.8,7.4-11.6C44.8,30.6,39.9,29.1,34.3,30z"/>
</g>
</svg>
