<svg xmlns="http://www.w3.org/2000/svg" viewBox="0 0 18.9 18.89"><defs><style>.cls-1{fill:#7c8d97;}</style></defs><title>Asset 2</title><g id="Layer_2" data-name="Layer 2"><g id="Layer_1-2" data-name="Layer 1"><path class="cls-1" d="M14.36,5.29h3.78V9.07H14.36Zm-.14,4.54h3.39L10.83,16.6Zm-9.54,0L8.07,16.6,1.29,9.83Zm-.15-.76H.76V5.29H4.53Zm0-4.54H1.29L4.53,1.29Zm.76,0V1.29L8.53,4.53Zm4.53.76H13.6V9.07H9.82Zm0,4.54h3.55L9.82,16.92ZM5.29,5.29H9.07V9.07H5.29ZM9.07,9.83v7.09L5.52,9.83Zm4.54-5.3H10.36l3.25-3.24Zm.75-3.24,3.25,3.24H14.36Zm4.51,8.3v0l0-.05s0,0,0-.07V4.91s0,0,0-.07l0,0v0l0,0v0a.12.12,0,0,0,0,0L14.25.11l-.06,0h0l0,0h-.29a.05.05,0,0,0,0,0h0l-.06.05L9.45,4.38,5.18.11l-.06,0h0l0,0H4.77l0,0h0s0,0,0,.05L.11,4.65l0,0s0,0,0,0l0,0v0s0,0,0,0a.17.17,0,0,0,0,.07V9.45a.17.17,0,0,0,0,.07s0,0,0,.05v0l0,.05v0l.05.06,9.07,9.06h0l0,0h0l0,0h.35l0,0h0l0,0h0l9.07-9.06,0-.06v0l0-.05"/></g></g></svg>