<?xml version="1.0" encoding="utf-8"?>
<!-- Generator: Adobe Illustrator 23.1.1, SVG Export Plug-In . SVG Version: 6.00 Build 0)  -->
<svg version="1.1" id="Layer_1" xmlns="http://www.w3.org/2000/svg" xmlns:xlink="http://www.w3.org/1999/xlink" x="0px" y="0px"
	 viewBox="0 0 18.9 18.9" style="enable-background:new 0 0 18.9 18.9;" xml:space="preserve">
<style type="text/css">
	.st0{fill:#7C8D97;}
</style>
<title>Asset 2</title>
<g>
	<g id="Layer_1-2">
		<path class="st0" d="M14.4,5.3h3.8v3.8h-3.8C14.4,9.1,14.4,5.3,14.4,5.3z M14.4,10h3.3L11,16.4L14.4,10z M4.6,10L8,16.4L1.2,10
			H4.6z M4.5,9.1H0.8V5.3h3.7V9.1z M4.5,4.5H1.3l3.2-3.2V4.5z M5.3,4.5V1.3l3.2,3.2H5.3z M9.9,5.3h3.7v3.8H9.9V5.3z M9.9,10h3.5
			l-3.5,6.9C9.9,16.9,9.9,10,9.9,10z M5.3,5.3H9v3.8H5.3V5.3z M9,10v6.9L5.5,10H9z M13.6,4.5h-3.2l3.2-3.2V4.5z M14.4,1.3l3.3,3.2
			h-3.3C14.4,4.5,14.4,1.3,14.4,1.3z M18.9,4.7L14.2,0h-0.4L9.5,4.2L5.2,0H4.7L0,4.7v5.4L9.3,19h0.3l9.3-8.9
			C18.9,10.1,18.9,4.7,18.9,4.7z"/>
	</g>
</g>
</svg>
