<?xml version="1.0" encoding="utf-8"?>
<!-- Generator: Adobe Illustrator 24.0.3, SVG Export Plug-In . SVG Version: 6.00 Build 0)  -->
<svg version="1.1" id="Layer_1" xmlns="http://www.w3.org/2000/svg" xmlns:xlink="http://www.w3.org/1999/xlink" x="0px" y="0px"
	 viewBox="0 0 56 56" style="enable-background:new 0 0 56 56;" xml:space="preserve">
<style type="text/css">
	.st0{fill-rule:evenodd;clip-rule:evenodd;fill:#181B42;}
</style>
<path class="st0" d="M43.7,41.2V30.3c0-5.9-3.1-8.6-7.3-8.6c-3.4,0-4.9,1.9-5.7,3.1v-2.7h-6.3c0.1,1.8,0,19.1,0,19.1h6.3V30.5
	c0-0.6,0-1.1,0.2-1.5c0.5-1.1,1.5-2.3,3.2-2.3c2.3,0,3.2,1.7,3.2,4.3v10.2L43.7,41.2L43.7,41.2z M17.7,19.5c2.2,0,3.6-1.5,3.6-3.3
	c0-1.9-1.4-3.3-3.5-3.3s-3.6,1.4-3.6,3.3C14.2,18.1,15.5,19.5,17.7,19.5L17.7,19.5z M28,56C12.5,56,0,43.5,0,28C0,12.5,12.5,0,28,0
	s28,12.5,28,28C56,43.5,43.5,56,28,56z M20.9,41.2V22.1h-6.3v19.1H20.9z"/>
</svg>
