<?xml version="1.0" encoding="utf-8"?>
<!-- Generator: Adobe Illustrator 24.0.3, SVG Export Plug-In . SVG Version: 6.00 Build 0)  -->
<svg version="1.1" id="Layer_1" xmlns="http://www.w3.org/2000/svg" xmlns:xlink="http://www.w3.org/1999/xlink" x="0px" y="0px"
	 viewBox="0 0 160 160" style="enable-background:new 0 0 160 160;" xml:space="preserve">
<style type="text/css">
	.st0{fill:#181B42;}
</style>
<path class="st0" d="M80,0L80,0C35.8,0,0,35.8,0,80l0,0c0,44.2,35.8,80,80,80l0,0c44.2,0,80-35.8,80-80l0,0C160,35.8,124.2,0,80,0z
	 M39.5,92.3c-3.3,3.3-7.7,5.2-12.4,5.2c0,0,0,0-0.1,0c-4.6,0-9-1.8-12.3-5.1c-3.3-3.3-5.2-7.7-5.2-12.4s1.8-9.1,5.1-12.4
	s7.7-5.2,12.4-5.2h0.1c9.6,0,17.4,7.9,17.4,17.4C44.6,84.6,42.8,89,39.5,92.3z M97.2,92.8l-6.4,6.4L78,86.4L65.2,99.2l-6.4-6.4
	L71.6,80L58.8,67.2l6.4-6.4L78,73.6l12.8-12.8l6.4,6.4L84.4,80L97.2,92.8z M146.5,95.5h-35v-35h35V95.5z"/>
</svg>
