<?xml version="1.0" encoding="utf-8"?>
<!-- Generator: Adobe Illustrator 24.0.3, SVG Export Plug-In . SVG Version: 6.00 Build 0)  -->
<svg version="1.1" id="Layer_1" xmlns="http://www.w3.org/2000/svg" xmlns:xlink="http://www.w3.org/1999/xlink" x="0px" y="0px"
	 viewBox="0 0 64 64" style="enable-background:new 0 0 64 64;" xml:space="preserve">
<style type="text/css">
	.st0{fill:#181B42;}
</style>
<g id="_x31_-Call">
</g>
<g id="_x32_-24_Hours_Call">
</g>
<g id="_x33_-Sending_Call">
</g>
<g id="_x34_-Incoming_Call">
</g>
<g id="_x35_-Talk_On_Phone">
</g>
<g id="_x36_-Block_Call">
</g>
<g id="_x37_-Hold_Call">
</g>
<g id="_x38_-Mute_Call">
</g>
<g id="_x39_-Phone_Book">
</g>
<g id="_x31_0-Add_Contact">
</g>
<g id="_x31_1-Delete_Contact">
</g>
<g id="_x31_2-Mail">
</g>
<g id="_x31_3-Message_Read">
</g>
<g id="_x31_4-Email">
</g>
<g id="_x31_5-Send_Mail">
</g>
<g id="_x31_6-Important_Mail">
</g>
<g id="_x31_7-Mail_Chain">
</g>
<g id="_x31_8-Messaging">
</g>
<g id="_x31_9-Sending">
</g>
<g id="_x32_0-Chat">
</g>
<g id="_x32_1-Mail_Attachment">
</g>
<g id="_x32_2-Mobile_Link">
</g>
<g id="_x32_3-Smartphone">
</g>
<g id="_x32_4-Social_Media">
</g>
<g id="_x32_5-Support">
</g>
<g id="_x32_6-Links">
</g>
<path class="st0" d="M32,0C14.3,0,0,14.3,0,32s14.3,32,32,32s32-14.3,32-32S49.7,0,32,0z M50.8,46c-0.2,0.5-0.4,1-0.7,1.4l-0.5,0.8
	c-0.2,0.2-0.3,0.4-0.5,0.6c-0.9,0.9-2.1,1.6-3.5,2c-0.9,0.2-1.8,0.3-2.8,0.3h0c-5.9,0-13.4-3.9-19.7-10.2
	c-7.5-7.5-11.4-16.5-9.8-22.5c0.4-1.4,1-2.6,2-3.5c0.2-0.2,0.3-0.3,0.5-0.5l0.8-0.5c0.5-0.3,0.9-0.5,1.4-0.7
	c0.4-0.2,0.9-0.2,1.4-0.2c1.4,0,2.7,0.7,3.5,1.8l3.9,5.5c0.7,0.9,0.9,2.1,0.7,3.2c-0.2,1.1-0.8,2.1-1.8,2.8l-1.8,1.3
	c1.4,2.2,3.5,4.6,5.8,6.8c2.3,2.3,4.7,4.3,6.9,5.8l1.3-1.8c0.8-1.1,2.1-1.8,3.5-1.8c0.9,0,1.7,0.3,2.4,0.8l5.5,3.9
	C50.8,42.2,51.5,44.2,50.8,46z"/>
<g id="_x32_8-Phone-2">
</g>
<g id="_x32_9-Map">
</g>
<g id="_x33_0-Location">
</g>
<g id="_x33_1-Write">
</g>
<g id="_x33_2-World">
</g>
<g id="_x33_3-Home">
</g>
<g id="_x33_4-Calendar">
</g>
<g id="_x33_5-Website">
</g>
<g id="_x33_6-Info">
</g>
<g id="_x33_7-Bull_Horn">
</g>
<g id="_x33_8-Profile">
</g>
<g id="_x33_9-Quote__x26__Answer">
</g>
<g id="_x34_0-Notification">
</g>
<g id="_x34_1-Share">
</g>
<g id="_x34_2-Time">
</g>
</svg>
