<svg xmlns="http://www.w3.org/2000/svg" viewBox="0 0 20.03 20.03"><defs><style>.cls-1{fill:#7c8d97;}</style></defs><title>Asset 5</title><g id="Layer_2" data-name="Layer 2"><g id="Layer_1-2" data-name="Layer 1"><path class="cls-1" d="M5.69,8.44v0s0,0,0,0h0l0,.06,2.27,2.27h0l0,0h0l0,0h3.69l0,0h0l.05,0h0l2.27-2.27.05-.06h0s0,0,0,0,0,0,0,0,0,0,0,0a.22.22,0,0,0,0-.08V2.65a.22.22,0,0,0,0-.08s0,0,0,0,0,0,0,0l0,0h0l-.05-.06L12,.11l-.06,0h0l-.06,0H8.17l-.06,0h0L8,.11,5.78,2.38l0,.06h0l0,0a0,0,0,0,0,0,0,.09.09,0,0,0,0,0,.22.22,0,0,0,0,.08V8.31a.22.22,0,0,0,0,.08A.09.09,0,0,0,5.69,8.44Zm6.4-7.15,1,1h-1Zm0,1.73H13.6V7.94H12.09Zm0,5.67h1l-1,1ZM8.69.76h2.65V2.27H8.69ZM8.69,3h2.65V7.94H8.69Zm0,5.67h2.65V10.2H8.69Zm-.76,1-1-1h1Zm0-8.38v1H7ZM6.42,3H7.93V7.94H6.42ZM20,15a.43.43,0,0,1,0,0v0l0-.05h0l0-.06-3.4-3.4-.06,0h0l0,0h0l-.05,0H3.7l0,0h0l0,0h0l-.06,0-3.4,3.4,0,.06h0L0,15a0,0,0,0,0,0,0v0a.22.22,0,0,0,0,.08v4.53A.38.38,0,0,0,.38,20H19.65a.38.38,0,0,0,.38-.38V15.12A.22.22,0,0,0,20,15ZM3.4,19.27H.76V15.49H3.4Zm0-4.53H1.29L3.4,12.63Zm12.47,4.53H4.16V15.49H15.87Zm0-4.53H4.16V12.09H15.87Zm.76-2.11,2.11,2.11H16.63Zm2.64,6.64H16.63V15.49h2.64Z"/></g></g></svg>