<?xml version="1.0" encoding="utf-8"?>
<!-- Generator: Adobe Illustrator 23.1.1, SVG Export Plug-In . SVG Version: 6.00 Build 0)  -->
<svg version="1.1" id="Layer_1" xmlns="http://www.w3.org/2000/svg" xmlns:xlink="http://www.w3.org/1999/xlink" x="0px" y="0px"
	 viewBox="0 0 20 20" style="enable-background:new 0 0 20 20;" xml:space="preserve">
<style type="text/css">
	.st0{fill:#7C8D97;}
</style>
<title>Asset 5</title>
<g>
	<g id="Layer_1-2">
		<path class="st0" d="M5.7,8.1l2.2,2.5h0l0,0l0,0l0,0h4.1l2.2-2.5V2.5L12,0H12l0,0h-0.1H8.2H8.1l0,0H8L5.7,2.5
			C5.7,2.5,5.7,8.1,5.7,8.1z M12.1,1.2l1,1h-1V1.2z M12.1,3h1.5v4.4h-1.5V3z M12.1,8.4h1.1l-1.1,1V8.4z M8.7,0.8h2.7v1.4H8.7V0.8z
			 M8.7,3h2.7v4.4H8.7V3z M8.7,8.4h2.7v1.4H8.7V8.4z M7.9,9.3l-1-1h1V9.3z M7.9,1.2v1h-1L7.9,1.2z M6.4,3h1.5v4.4H6.4V3z M20,14.9
			l-3.6-3.4H3.7c0,0-3.7,3.6-3.7,3.6v4.5C0,19.8,0.2,20,0.4,20c0,0,0,0,0,0h19.3c0.2,0,0.4-0.2,0.4-0.4L20,14.9z M3.4,19.3H0.8v-3.7
			h2.6V19.3z M3.4,14.7H1.7L3.4,13V14.7z M15.8,19.3H4.3v-3.7h11.5L15.8,19.3z M15.8,14.7H4.3v-2.4h11.5L15.8,14.7z M16.6,12.9
			l1.8,1.9h-1.8L16.6,12.9z M19.2,19.3h-2.6v-3.7h2.6L19.2,19.3z"/>
	</g>
</g>
</svg>
