<?xml version="1.0" encoding="utf-8"?>
<!-- Generator: Adobe Illustrator 24.0.3, SVG Export Plug-In . SVG Version: 6.00 Build 0)  -->
<svg version="1.1" id="Layer_1" xmlns="http://www.w3.org/2000/svg" xmlns:xlink="http://www.w3.org/1999/xlink" x="0px" y="0px"
	 viewBox="0 0 56 56" style="enable-background:new 0 0 56 56;" xml:space="preserve">
<style type="text/css">
	.st0{fill:#181B42;}
</style>
<path class="st0" d="M28,0C12.5,0,0,12.5,0,28s12.5,28,28,28s28-12.5,28-28S43.5,0,28,0z M44.2,21.1c-1.9,10.5-12.3,19.5-15.5,21.5
	c-3.1,2-6-0.8-7.1-3c-1.2-2.5-4.8-15.8-5.7-16.9c-0.9-1.1-3.7,1.1-3.7,1.1L10.9,22c0,0,5.7-6.8,10-7.6c4.6-0.9,4.6,7.1,5.7,11.5
	c1.1,4.3,1.8,6.7,2.7,6.7c0.9,0,2.7-2.4,4.7-6c2-3.7-0.1-6.9-3.9-4.6C31.6,12.8,46.1,10.6,44.2,21.1z"/>
</svg>
