<svg xmlns="http://www.w3.org/2000/svg" viewBox="0 0 19.22 19.22"><defs><style>.cls-1{fill:#7c8d97;}</style></defs><title>Asset 1</title><g id="Layer_2" data-name="Layer 2"><g id="Layer_1-2" data-name="Layer 1"><path class="cls-1" d="M6.37,18.44h-3l3.16-3.16L8,16.78ZM2.44,11.18l1.5,1.5L.77,15.85v-3ZM17.25,4.41,18.44,2V5.6ZM14.81,2,13.62.77h3.57Zm1.42,2.51L7.9,12.82l-1.5-1.5L14.73,3Zm-.85-1.94L18,1.25l-1.3,2.58ZM12.68.93l1.5,1.51L5.85,10.77l-1.5-1.5ZM3.8,9.81l1.5,1.51-.81.82L3,10.63ZM5,12.68l.82-.82,1.5,1.51-.82.82Zm-2.59,5.6L.93,16.78l3.56-3.55L6,14.73Zm6.14-2.05-1.5-1.5.82-.82,1.5,1.5ZM10,14.87l-1.5-1.5L16.78,5l1.5,1.5Zm9.24-8.19s0,0,0,0v0s0-.05,0-.08V.28s0,0,0,0a0,0,0,0,0,0,0v0h0v0l0,0v0l0,0,0,0h0l0,0H12.58l0,0h0l0,0-.06.05L.11,12.41a.39.39,0,0,0-.11.27v4.1a.22.22,0,0,0,0,.08v0s0,0,0,.05,0,0,0,0l0,0,.05.06L2.16,19.1l0,0,0,0,0,0,0,0H6.53a.36.36,0,0,0,.28-.12L19.1,6.81l0-.06,0,0v0"/></g></g></svg>