<?xml version="1.0" encoding="utf-8"?>
<!-- Generator: Adobe Illustrator 23.1.1, SVG Export Plug-In . SVG Version: 6.00 Build 0)  -->
<svg version="1.1" id="Layer_1" xmlns="http://www.w3.org/2000/svg" xmlns:xlink="http://www.w3.org/1999/xlink" x="0px" y="0px"
	 viewBox="0 0 19.2 19.2" style="enable-background:new 0 0 19.2 19.2;" xml:space="preserve">
<style type="text/css">
	.st0{fill:#7C8D97;}
</style>
<title>Asset 1</title>
<g>
	<g id="Layer_1-2">
		<path class="st0" d="M6.4,18.4h-3l3.2-3.2L8,16.8L6.4,18.4z M2.4,11.2l1.5,1.5l-3.2,3.2v-3L2.4,11.2z M17.2,4.4L18.4,2v3.6
			L17.2,4.4z M14.8,2l-1.2-1.2h3.6L14.8,2z M16.2,4.5l-8.3,8.3l-1.5-1.5L14.7,3L16.2,4.5z M15.4,2.6L18,1.2l-1.3,2.6L15.4,2.6z
			 M12.7,0.9l1.5,1.5l-8.3,8.3L4.3,9.3L12.7,0.9z M3.8,9.8l1.5,1.5l-0.8,0.8L3,10.6L3.8,9.8z M5,12.7l0.8-0.8l1.5,1.5l-0.8,0.8
			L5,12.7z M2.4,18.3l-1.5-1.5l3.6-3.6L6,14.7L2.4,18.3z M8.6,16.2l-1.5-1.5l0.8-0.8l1.5,1.5L8.6,16.2z M10,14.9l-1.5-1.5L16.8,5
			l1.5,1.5L10,14.9z M19.2,6.6l0-6.6h-6.7L0,12.5v4.4l0,0l2.3,2.3h4.3C6.6,19.2,19.2,6.6,19.2,6.6z"/>
	</g>
</g>
</svg>
